<?xml version="1.0" encoding="UTF-8"?>
<svg id="Livello_1" data-name="Livello 1" xmlns="http://www.w3.org/2000/svg" viewBox="0 0 50 50">
  <path d="m25,0C11.19,0,0,11.29,0,25.21c0,12.39,8.87,22.67,20.56,24.79v-1.33c-.01-.64-.02-.39-.01-.64,0-.8-.01-1.61-.02-2.41,0-.51,0-1.02,0-1.56-.63.08-1.17.17-1.71.21-2.68.23-5.17-.87-6.04-3.47-.41-1.21-1.22-2.21-2.35-2.88-.2-.12-.37-.28-.52-.45-.34-.37-.27-.66.2-.77.3-.07.64-.1.94-.04,1.45.26,2.42,1.17,3.16,2.39,1.43,2.37,3.68,2.86,6.11,1.89.13-.05.3-.18.32-.3.17-1.06.57-2.01,1.31-2.82-.87-.16-1.69-.28-2.5-.47-3.08-.73-5.47-2.35-6.69-5.42-.54-1.35-.75-2.78-.86-4.22-.19-2.56.38-4.88,2.01-6.9.12-.15.18-.43.13-.61-.51-1.78-.37-3.52.19-5.26.12-.38.32-.52.7-.48.18.02.35.02.53.05,1.75.28,3.25,1.16,4.73,2.07.21.13.53.19.77.13,3.43-.83,6.86-.83,10.3,0,.25.06.58-.02.82-.14.88-.45,1.7-1.04,2.61-1.41.86-.35,1.79-.49,2.7-.7.3-.07.48.1.58.4.58,1.75.73,3.51.22,5.31-.05.19.02.49.14.65.9,1.13,1.52,2.39,1.81,3.82.29,1.42.21,2.84.06,4.26-.47,4.39-2.89,7.24-7.12,8.35-.92.24-1.86.39-2.85.59,1.11,1.19,1.42,2.61,1.42,4.13,0,1.96-.02,3.92-.03,5.89,0,.32,0,0,0,.8l.02.83c10.59-2.93,18.39-12.68,18.39-24.29C50,11.29,38.81,0,25,0Z"/>
</svg>