<?xml version="1.0" encoding="UTF-8"?>
<svg id="Livello_1" data-name="Livello 1" xmlns="http://www.w3.org/2000/svg" viewBox="0 0 50 50">
  <path d="m25,0C11.19,0,0,11.19,0,25s11.19,25,25,25,25-11.19,25-25S38.81,0,25,0Zm-6.44,36.11h-5.14v-16.61h5.14v16.61Zm-2.6-18.78c-1.68,0-3.04-1.37-3.04-3.07s1.36-3.06,3.04-3.06,3.04,1.37,3.04,3.06-1.36,3.07-3.04,3.07Zm21.86,18.78h-5.12v-8.72c0-2.39-.91-3.73-2.8-3.73-2.06,0-3.13,1.39-3.13,3.73v8.72h-4.93v-16.61h4.93v2.24s1.48-2.74,5-2.74,6.04,2.15,6.04,6.6v10.51Z"/>
</svg>