<?xml version="1.0" encoding="UTF-8"?>
<svg id="Livello_1" data-name="Livello 1" xmlns="http://www.w3.org/2000/svg" viewBox="0 0 50 50">
  <path d="m25,0C11.19,0,0,11.19,0,25s11.19,25,25,25,25-11.19,25-25S38.81,0,25,0Zm-11.18,13.75h22.34c.31,0,.6.04.89.12-.04.04-.08.07-.12.11l-9.99,11.33c-.5.57-1.2.88-1.96.88s-1.46-.31-1.96-.88l-10.08-11.44c.28-.07.57-.12.87-.12Zm25.8,16.44c0,3.35-2.72,6.07-6.07,6.07h-17.1c-3.35,0-6.07-2.72-6.07-6.07v-12.99c0-.48.1-.94.28-1.36l10.11,11.47c1.07,1.22,2.62,1.91,4.24,1.91,1.62,0,3.16-.7,4.23-1.91l9.99-11.33c.04-.05.08-.11.11-.16.18.42.29.89.29,1.38v12.99Z"/>
</svg>