<?xml version="1.0" encoding="UTF-8"?>
<svg id="Livello_1" data-name="Livello 1" xmlns="http://www.w3.org/2000/svg" viewBox="0 0 50 50">
  <path d="m25,0C11.19,0,0,11.19,0,25s11.19,25,25,25,25-11.19,25-25S38.81,0,25,0Zm11.92,16.26c-.07,1.01-.65,4.55-1.23,8.38-.87,5.42-1.81,11.34-1.81,11.34,0,0-.14,1.66-1.37,1.95-1.23.29-3.25-1.01-3.61-1.3-.29-.22-5.42-3.47-7.3-5.06-.51-.43-1.08-1.3.07-2.31,2.6-2.38,5.71-5.35,7.59-7.23.87-.87,1.73-2.89-1.88-.43-5.13,3.54-10.19,6.86-10.19,6.86,0,0-1.16.72-3.32.07-2.17-.65-4.7-1.52-4.7-1.52,0,0-1.73-1.08,1.23-2.24,0,0,12.5-5.13,16.84-6.94,1.66-.72,7.3-3.03,7.3-3.03,0,0,2.6-1.01,2.38,1.45Z"/>
</svg>