<?xml version="1.0" encoding="UTF-8"?>
<svg id="Livello_1" data-name="Livello 1" xmlns="http://www.w3.org/2000/svg" viewBox="0 0 50 50">
  <path d="m25.52,12.02c-6.64,0-12.04,5.4-12.04,12.04,0,2.19.61,4.35,1.76,6.24l.31.51-1.2,4.49,4.51-1.21.51.3c1.87,1.11,3.99,1.7,6.15,1.7,6.64,0,12.04-5.4,12.04-12.04s-5.4-12.04-12.04-12.04Zm7.07,16.59c-.45,1.09-1.56,1.79-2.69,2-1.08.2-1.97-.14-2.97-.47-.89-.29-1.75-.72-2.55-1.21-1.6-.98-2.98-2.29-4.09-3.79-.34-.46-.65-.94-.94-1.43-.38-.65-.72-1.34-.9-2.08-.07-.31-.11-.62-.12-.94-.01-1.12.41-2.24,1.3-2.96.51-.42,1.27-.6,1.84-.27.62.35.95,1.24,1.24,1.87.23.49.48,1.13.39,1.68-.09.55-.53,1.01-.87,1.42-.23.27-.27.51-.07.8,1.14,1.91,2.73,3.29,4.81,4.12.28.11.5.08.68-.15.36-.44.71-1.31,1.26-1.53.72-.29,1.51.11,2.13.48.57.34,1.52.76,1.67,1.46.07.34,0,.7-.12,1.02Z"/>
  <path d="m25,0C11.19,0,0,11.19,0,25s11.19,25,25,25,25-11.19,25-25S38.81,0,25,0Zm.52,38.91c-2.46,0-4.88-.62-7.06-1.8l-8.08,2.17,2.16-8.04c-1.22-2.2-1.86-4.67-1.86-7.17,0-8.19,6.66-14.85,14.85-14.85s14.85,6.66,14.85,14.85-6.66,14.85-14.85,14.85Z"/>
</svg>