<?xml version="1.0" encoding="UTF-8"?>
<svg xmlns="http://www.w3.org/2000/svg" id="Livello_1" data-name="Livello 1" viewBox="0 0 50 50">
  <path d="m11.08,14.89c-.01.12-.02.23-.02.35v19.94c0,2.14,1.7,3.87,3.8,3.87h.15v7.89c0,1.69,1.37,3.07,3.07,3.07s3.07-1.37,3.07-3.07v-7.89h7.7v7.89c0,1.69,1.37,3.07,3.07,3.07s3.07-1.37,3.07-3.07v-7.89h.15c2.11,0,3.8-1.73,3.8-3.87V15.24c0-.12,0-.24-.01-.35H11.08Z"></path>
  <path d="m38.36.16c-.56-.33-1.29-.13-1.61.43l-2.44,4.23c-1.98-1.56-4.48-2.64-7.26-2.99-.3-.04-.61-.06-.91-.06h-2.27c-.3,0-.61.02-.91.06-2.77.36-5.28,1.43-7.26,2.99L13.26.59c-.33-.56-1.05-.76-1.61-.43-.56.33-.76,1.05-.43,1.61l2.73,4.73c-1.71,1.98-2.74,4.42-2.77,7.08h27.66c-.04-2.66-1.06-5.1-2.77-7.08l2.73-4.73c.33-.56.13-1.29-.43-1.61Zm-17.48,7.93c0,.86-.71,1.55-1.58,1.55-.88,0-1.59-.69-1.59-1.55h0c0-.86.71-1.56,1.58-1.56.88,0,1.59.69,1.59,1.55h0Zm11.85,0c0,.86-.71,1.55-1.58,1.55-.88,0-1.59-.69-1.59-1.55h0c0-.86.71-1.56,1.58-1.56.88,0,1.59.69,1.59,1.55h0Z"></path>
  <path d="m6.13,16.66h0c-1.69,0-3.07,1.37-3.07,3.07v13.16c0,1.69,1.37,3.07,3.07,3.07s3.07-1.37,3.07-3.07v-13.16c0-1.69-1.37-3.07-3.07-3.07Z"></path>
  <path d="m43.87,16.66h0c-1.69,0-3.07,1.37-3.07,3.07v13.16c0,1.69,1.37,3.07,3.07,3.07s3.07-1.37,3.07-3.07v-13.16c0-1.69-1.37-3.07-3.07-3.07Z"></path>
</svg>
