<?xml version="1.0" encoding="UTF-8"?>
<svg xmlns="http://www.w3.org/2000/svg" id="Livello_1" data-name="Livello 1" viewBox="0 0 50 50">
  <defs>
    <style>
      .cls-1 {
        fill: #f0eb31;
      }

      .cls-2 {
        fill: #fff;
      }

      .cls-3 {
        fill: #1fa9e1;
      }
    </style>
  </defs>
  <path class="cls-2" d="m41.14,25.06c0,9.17-7.43,16.6-16.6,16.6S7.95,34.22,7.95,25.06,15.38,8.46,24.54,8.46s16.6,7.43,16.6,16.6Z"></path>
  <g>
    <path class="cls-3" d="m22.01,19.01c.62-1.29.94-2.62-.02-3.85-.94-1.22-2.43-1.11-3.86-1.27,1.46-1.46,4.95-2.41,5.16-1.94s-.69.75-.65,1.14c.02.26.19.59.5.61.26.02.43-.33.57-.54,1.01-1.59,2.78-1.31,4.25-1.64.74-.17,1.49,0,1.6-.98.08-.74-.56-.97-1.08-1.17-1.85-.7-3.77-.77-5.71-.59-.24.02-.49,0-.73-.15l1.11-.17c1.35-.13,1.46-.2,3.14.02,1.88.32,3.77.67,5.47,1.58,1.33.71,2.63,1.54,3.8,2.49,1.66,1.34,2.94,3.08,3.87,5,.68,1.4,1.26,2.87,1.49,4.76-.27-.64-.41-.97-.57-1.26l-1.14-1.96c-.41-.72-1.79-.32-2.49-1.31-.58-.42-1.66-.11-1.85.37-.48,1.18-.51,2.3.8,3,.77.41.69-.46,1.23-.78.04-.03.1-.03.14,0,.61.46.45,2.46,1.08,2.51.38.03.31-2.13.5-2.16.13-.02,1.06,1.58.38,2.38-1.06,1.26-1.94.11-2.78-.42-1.39-.88-2.42-2.55-4.38-2.21-2.05.35-3.34,3.46-2.64,5.43.59,1.65,2.03,2.68,2.57,4.29.06.17.02.37.03.56-.11-.1-.22-.19-.32-.3-3.47-3.56-6.25-7.7-9.48-11.46Zm1.15-4.32c.45.27.83.24,1.19.02.37-.23.63-.54.6-1.06-.83-.05-1.27.49-1.79,1.04Z"></path>
    <path class="cls-3" d="m30.87,33.52c-.84,1.25-2.35,2.03-2.77,3.55-.64,2.34,1.23,2.72,2.73,3.32-6.16,2.78-14.77.81-18.67-4.31.61.21.93.44,1.97.28-2.26-2.38-2.03-4.88-.86-7.43,1.13-2.47,3.15-4.15,5.22-5.79.71-.56,1.37-1.19,2.05-1.8,3.36,4.12,6.45,8.48,10.32,12.17Z"></path>
    <path class="cls-1" d="m48.99,28.72c-.43-.69-.93-1.25-1.5-1.73-.88-.74-1.94-1.23-3.05-1.52-1.04-.27-2.16-.42-3.3-.29,0,.64-.09,1.82-.24,2.7,2.82.1,5.36.59,6.26,3.72.41,1.45-.25,2.58-1.33,3.44-1.4,1.1-3.04,1.13-5.2.83-.3-.07-1.06-.26-1.82-.44-2.8-.87-4.93-2.71-6.98-4.66-.11-.1-.22-.19-.32-.3-3.47-3.56-6.25-7.7-9.48-11.45-1.93-2.42-4.18-4.49-6.85-6.08-.48-.19-1.25-.51-1.73-.7l-.19-.05c-2.28-.58-4.69-.64-6.94.03-2.01.6-3.69,1.65-4.88,3.31-1.17,1.63-1.64,3.71-1.33,5.69.27,1.78,1.05,3.26,2.22,4.55,1.56,1.73,3.63,2.63,5.98,2.81-.11-.94-.22-1.88-.32-2.83,0,0,0,0,0-.01-2.34-.33-4.21-1.4-4.98-3.71-.76-2.29,0-4.31,1.75-5.88,2.55-2.29,5.41-2.43,8.51-1.13,3.15,1.32,5.17,3.88,7.31,6.34,3.36,4.12,6.45,8.48,10.32,12.17,1.84,1.36,3.6,2.82,5.72,3.78,2.27,1.03,4.3,1.73,6.95,1.47,1.34-.13,2.66-.54,3.79-1.27,1.39-.9,2.1-2.12,2.52-4.04.39-1.77,0-3.34-.86-4.75Z"></path>
    <path class="cls-3" d="m15.28,13c-.51-.23-.94-.38-1.45-.61.66-.58,1.52-1.18,2.14-1.54.5,1.05,2.38.41,2.38,1.24,0,1.1-2.12.42-3.06.91Z"></path>
    <path class="cls-2" d="m23.16,14.7c.41-.9,1.67-1.18,1.79-1.04.34.4-.23.83-.6,1.06-.35.33-1.33.3-1.19-.02Z"></path>
  </g>
  <path class="cls-3" d="m8.28,28.56c-.11-.95-.22-1.88-.32-2.83-.03-1.21-.03-2.38.24-3.62,2.29,2.78,1.64,5.97.9,9.04-.31-.73-.6-1.63-.82-2.59Z"></path>
  <path class="cls-1" d="m13.43,12.23s.95.33,1.84.77-1.32.23-1.32.23l-.52-1Z"></path>
</svg>
