<?xml version="1.0" encoding="UTF-8"?>
<svg xmlns="http://www.w3.org/2000/svg" id="Livello_1" data-name="Livello 1" viewBox="0 0 50 50">
  <path d="m25.12,20.22c-2.64,0-4.78,2.14-4.78,4.78s2.14,4.78,4.78,4.78,4.78-2.14,4.78-4.78-2.14-4.78-4.78-4.78Z"></path>
  <path d="m31.05,12.7h-12.1c-3.45,0-6.25,2.8-6.25,6.25v12.1c0,3.45,2.8,6.25,6.25,6.25h12.1c3.45,0,6.25-2.8,6.25-6.25v-12.1c0-3.45-2.8-6.25-6.25-6.25Zm-5.93,19.77c-4.12,0-7.46-3.35-7.46-7.46s3.35-7.46,7.46-7.46,7.46,3.35,7.46,7.46-3.35,7.46-7.46,7.46Zm7.9-13.65c-.98,0-1.78-.8-1.78-1.78s.8-1.78,1.78-1.78,1.78.8,1.78,1.78-.8,1.78-1.78,1.78Z"></path>
  <path d="m25,0C11.19,0,0,11.19,0,25s11.19,25,25,25,25-11.19,25-25S38.81,0,25,0Zm15.15,31.05c0,5.02-4.08,9.1-9.1,9.1h-12.1c-5.02,0-9.1-4.08-9.1-9.1v-12.1c0-5.02,4.08-9.1,9.1-9.1h12.1c5.02,0,9.1,4.08,9.1,9.1v12.1Z"></path>
</svg>
