<?xml version="1.0" encoding="utf-8"?>
<!-- Generator: Adobe Illustrator 25.3.1, SVG Export Plug-In . SVG Version: 6.00 Build 0)  -->
<svg version="1.1" id="Livello_1" xmlns="http://www.w3.org/2000/svg" xmlns:xlink="http://www.w3.org/1999/xlink" x="0px" y="0px"
	 width="161.2px" height="45.5px" viewBox="0 0 161.2 45.5" style="enable-background:new 0 0 161.2 45.5;" xml:space="preserve">
<style type="text/css">
	.st0{fill:#FFFFFF;}
</style>
<g>
	<g>
		<path class="st0" d="M66.1,37.8l-1.6-5.6c-0.2-0.5-0.3-0.9-0.5-1.2c-0.2-0.4-0.6-0.5-1.1-0.5c-0.6,0-1.4,0.3-1.7,1.8l-1.7,5.5
			l-1.8-7.3h-3.4L58,44.3h2.6l2.2-7.1l2.2,7.1h2.6l3.7-13.8h-3.4L66.1,37.8z"/>
		<polygon class="st0" points="79.8,36 75.6,36 75.6,30.4 72.4,30.4 72.4,44.2 75.6,44.2 75.6,38.9 79.8,38.9 79.8,44.2 83,44.2 
			83,30.4 79.8,30.4 		"/>
		<rect x="85.6" y="30.4" class="st0" width="3.2" height="13.8"/>
		<polygon class="st0" points="90.9,33.4 94.4,33.4 94.4,44.2 97.6,44.2 97.6,33.4 101.1,33.4 101.1,30.4 90.9,30.4 		"/>
		<path class="st0" d="M102.8,40.4c0,1.4,0.3,2.4,1,3s1.8,0.8,3.3,0.8h5v-3h-4.8c-0.7,0-1-0.1-1.1-0.2c-0.2-0.1-0.2-0.4-0.2-0.8
			v-1.5h4l0.2-3h-4.3v-2.4h6.1v-3h-9.3v10.1H102.8z"/>
		<path class="st0" d="M120.4,35.9l-2.1-0.2c-0.4-0.1-0.7-0.2-1-0.4c-0.2-0.2-0.3-0.4-0.3-0.8c0-0.3,0.2-0.6,0.5-0.9
			c0.4-0.3,0.9-0.4,1.6-0.4c1.1,0,1.7,0.4,1.8,1.3l0.1,0.3l2.9-0.1v-0.3c0-1.2-0.5-2.2-1.4-2.9c-0.9-0.7-2.1-1.1-3.5-1.1
			s-2.7,0.4-3.6,1.2c-1,0.8-1.5,1.8-1.5,3.1c0,1.2,0.4,2.2,1,2.8c0.7,0.6,1.6,1.1,2.7,1.2l2.1,0.2c1.2,0.2,1.3,0.8,1.3,1.2
			c0,0.6-0.2,1.3-2,1.3c-0.6,0-1.2-0.2-1.7-0.5s-0.7-0.7-0.7-1.3v-0.4l-3,0.1v0.3c0,0.8,0.2,1.5,0.5,2.2c0.4,0.6,0.8,1.1,1.4,1.5
			c1.1,0.6,2.2,1,3.4,1c1.5,0,2.7-0.4,3.7-1.1c1-0.8,1.5-1.8,1.5-3.2C124.2,37.6,123,36.2,120.4,35.9z"/>
		<path class="st0" d="M130.7,30.3c-1.9,0-3.3,0.5-4.2,1.6c-0.9,1.1-1.3,2.7-1.3,4.8v1c0,2.3,0.4,4,1.3,5.1s2.3,1.6,4.2,1.6
			s3.4-0.5,4.2-1.6c0.9-1.1,1.3-2.7,1.3-5v-1c0-2.1-0.5-3.7-1.4-4.8C134,30.9,132.6,30.3,130.7,30.3z M128.4,37
			c0-1.2,0.1-2.1,0.4-2.7c0.3-0.7,0.9-1,1.9-1s1.6,0.3,1.9,1c0.3,0.7,0.4,1.6,0.4,2.7v0.7c0,0.9-0.1,1.6-0.2,2.2
			c-0.1,0.3-0.2,0.6-0.4,0.8s-0.4,0.4-0.7,0.5c-0.6,0.3-1.6,0.3-2.1,0c-0.3-0.1-0.5-0.3-0.7-0.5c-0.4-0.5-0.6-1.5-0.6-3L128.4,37
			L128.4,37z"/>
		<path class="st0" d="M144.9,38.8c-0.1,0.9-0.3,1.6-0.6,2s-0.8,0.6-1.5,0.6c-0.8,0-1.3-0.2-1.6-0.6c-0.3-0.5-0.5-1.4-0.5-2.7V37
			c0-0.5,0-0.9,0-1.2c0-0.8,0.2-1.4,0.4-1.8c0.4-0.5,0.9-0.7,1.7-0.7c0.6,0,1.1,0.2,1.4,0.4c0.3,0.3,0.5,0.8,0.6,1.5l0.1,0.3h3v-0.3
			c0-1.5-0.5-2.8-1.4-3.6c-0.9-0.8-2.2-1.2-3.6-1.2c-1,0-1.9,0.2-2.6,0.5c-1.8,0.8-2.8,2.9-2.8,6.2v1.1c0,4.1,1.8,6.3,5.4,6.3
			c1.6,0,2.9-0.5,3.8-1.5s1.3-2.3,1.3-4.1v-0.3h-3L144.9,38.8z"/>
		<polygon class="st0" points="156.4,36.9 160.9,30.4 157.5,30.4 153,37 153,30.4 149.8,30.4 149.8,44.2 153,44.2 153,41.4 
			154.4,39.5 157.4,44.2 161.2,44.2 		"/>
	</g>
	<g>
		<path class="st0" d="M11.1,37.4c2.4-9.7,1.2-14.6,3.2-21s2.9-7.5,3.6-7.5c0.6,0,1.1,5.2,1.3,7.5s0.6,4.2,1,4.3
			c0.5,0.1,3.8,0,3.8,0c0.3-1.9,0.4-3.9,0.4-5.8c-0.1-2.6-0.5-4.7,0-4.7c0.5-0.1,2.9,2.9,3.8,4.9c0.7,1.6,1.3,3.2,1.9,4.9
			c0,0,8.9,0.1,10.3,0s3.1,0.2,3,1.4c-0.5,2.9-1.4,5.7-2.6,8.3c-0.9,1.5-5.8,4.3-7.1,5s-0.1,2.9,0.7,7.7c0.1,0.7,0.1,1.4,0.2,2.1
			h12.5L45.3,0.9l-35.8,5L0,44.5h8.8C9.8,42.2,10.6,39.9,11.1,37.4z"/>
		<path class="st0" d="M28.1,25.9c0-1.7-1.4-3.1-3.1-3.1s-3.1,1.4-3.1,3.1S23.3,29,25,29C26.8,29,28.1,27.6,28.1,25.9z M23,25.9
			c0-1.1,0.9-2,2-2s2,0.9,2,2s-0.9,2-2,2S23,27,23,25.9z"/>
	</g>
</g>
</svg>
